<svg aria-hidden="true" style="position: absolute; width: 0; height: 0; overflow: hidden;" version="1.1" xmlns="http://www.w3.org/2000/svg" xmlns:xlink="http://www.w3.org/1999/xlink">
    <defs>
        <symbol id="icon-logo" viewBox="0 0 35 32">
            <path fill="#02bc6b" style="fill: var(--color1, #02bc6b)" d="M2.71 29.802c-1.49 0-2.71-1.219-2.71-2.71v-9.473h6.821v-0.011h4.099c1.057-0.027 1.951-0.948 1.951-2.032 0-1.111-0.921-2.032-2.032-2.032l-10.839 0.002v-2.711c0-1.49 1.219-2.71 2.71-2.71h8.129c2.059 0 3.821 0.732 5.257 2.195 1.463 1.436 2.195 3.197 2.195 5.257 0 2.032-0.705 3.794-2.141 5.23s-3.17 2.195-5.203 2.222h-5.528v4.065c0 1.49-1.219 2.71-2.71 2.71z"></path>
            <path fill="#02897a" style="fill: var(--color2, #02897a)" d="M21.706 4.98c2.994 2.908 4.502 6.529 4.502 10.646 0 4.048-1.445 7.666-4.393 10.583l-4.185-3.937c1.833-1.814 2.733-3.998 2.733-6.645 0-2.667-0.927-4.848-2.804-6.671l4.146-3.975z"></path>
            <path fill="#035b81" style="fill: var(--color3, #035b81)" d="M28.113 0c4.312 4.305 6.482 9.643 6.482 15.77 0 6.031-2.082 11.366-6.323 15.68l-4.039-3.946c3.159-3.214 4.707-7.112 4.707-11.734 0-4.669-1.6-8.563-4.828-11.786l4.002-3.984z"></path>
            <path fill="#028e37" style="fill: var(--color4, #028e37)" d="M0 23.051h5.419v4.042c0 1.49-1.219 2.71-2.71 2.71s-2.71-1.219-2.71-2.71v-4.042z"></path>
        </symbol>

        <symbol id="icon-burger" viewBox="0 0 29 32">
            <path stroke-linejoin="round" stroke-linecap="round" stroke-miterlimit="4" stroke-width="3.0968" d="M3.613 16h21.677"></path>
            <path stroke-linejoin="round" stroke-linecap="round" stroke-miterlimit="4" stroke-width="3.0968" d="M3.613 8h21.677"></path>
            <path stroke-linejoin="round" stroke-linecap="round" stroke-miterlimit="4" stroke-width="3.0968" d="M3.613 24h21.677"></path>
        </symbol>

        <symbol id="icon-close" viewBox="0 0 20 20">
            <path d="M10 8.586l-7.071-7.071-1.414 1.414 7.071 7.071-7.071 7.071 1.414 1.414 7.071-7.071 7.071 7.071 1.414-1.414-7.071-7.071 7.071-7.071-1.414-1.414-7.071 7.071z"></path>
        </symbol>

        <symbol id="icon-play" viewBox="0 0 17 20">
            <path d="M16.235 9.175c0.753 0.432 0.753 1.519 0 1.951l-14.037 8.057c-0.75 0.43-1.685-0.111-1.685-0.976v-16.114c0-0.865 0.935-1.406 1.685-0.976l14.037 8.057z"></path>
        </symbol>

        <symbol id="icon-arrow" viewBox="0 0 13 20">
            <path d="M11.901 11.254l-10.756-10.756c-0.126-0.137-0.294-0.2-0.473-0.2-0.084 0-0.179 0.021-0.252 0.053-0.252 0.105-0.42 0.347-0.42 0.62v15.798c0 0.273 0.168 0.515 0.42 0.62 0.074 0.032 0.168 0.052 0.252 0.052 0.179 0 0.347-0.074 0.473-0.2l3.277-3.277 2.006 4.748c0.147 0.336 0.536 0.504 0.882 0.357l1.859-0.788c0.336-0.147 0.504-0.536 0.357-0.882l-2.111-5h4.013c0.273 0 0.515-0.168 0.62-0.42 0.105-0.242 0.052-0.536-0.147-0.725z"></path>
        </symbol>

        <symbol id="icon-line" viewBox="0 0 26 20">
            <path d="M13.546 8.015l1.671 0.778 2.487-0.74v-1.735c0-2.946-2.487-5.306-5.459-5.306-2.959 0-5.459 2.347-5.459 5.268v7.908c0 0.727-0.587 1.301-1.301 1.301s-1.301-0.574-1.301-1.301v-3.342h-4.184c0 3.355 0 3.393 0 3.393 0 3.023 2.449 5.472 5.472 5.472 2.997 0 5.472-2.411 5.472-5.395v-7.806c0-0.714 0.587-1.301 1.301-1.301s1.301 0.587 1.301 1.301v1.505zM20.306 10.847v3.508c0 0.714-0.587 1.288-1.301 1.288s-1.301-0.574-1.301-1.288v-3.444l-2.487 0.74-1.671-0.778v3.418c0 2.997 2.462 5.421 5.472 5.421 3.023 0 5.472-2.449 5.472-5.472 0 0 0-0.038 0-3.393h-4.184z"></path>
        </symbol>

        <symbol id="icon-heart" viewBox="0 0 21 20">
            <path d="M10.667 18.814c0.19 0 0.381-0.071 0.524-0.214l7.417-7.143c0.107-0.107 2.726-2.5 2.726-5.357 0-3.488-2.131-5.571-5.691-5.571-2.083 0-4.036 1.643-4.976 2.571-0.94-0.929-2.893-2.571-4.976-2.571-3.56 0-5.69 2.083-5.69 5.571 0 2.857 2.619 5.25 2.714 5.333l7.429 7.167c0.143 0.143 0.333 0.214 0.524 0.214z"></path>
        </symbol>

        <symbol id="icon-clock" viewBox="0 0 16 20">
            <path d="M14.79 1.643h1.008c0.189 0 0.336-0.147 0.336-0.336v-0.672c0-0.189-0.147-0.336-0.336-0.336h-15.462c-0.189 0-0.336 0.147-0.336 0.336v0.672c0 0.189 0.147 0.336 0.336 0.336h1.008c0 3.887 1.859 6.702 3.918 8.067-2.059 1.366-3.918 4.181-3.918 8.067h-1.008c-0.189 0-0.336 0.147-0.336 0.336v0.672c0 0.189 0.147 0.336 0.336 0.336h15.462c0.189 0 0.336-0.147 0.336-0.336v-0.672c0-0.189-0.147-0.336-0.336-0.336h-1.008c0-3.886-1.859-6.702-3.918-8.067 2.059-1.366 3.918-4.181 3.918-8.067zM13.445 1.643c0 1.534-0.347 2.889-0.893 4.034h-8.971c-0.546-1.145-0.893-2.5-0.893-4.034h10.756zM12.847 14.416h-9.559c0.777-2.027 2.174-3.466 3.571-4.034h2.416c1.397 0.567 2.794 2.006 3.571 4.034z"></path>
        </symbol>

        <symbol id="icon-check-mark" viewBox="0 0 25 20">
            <path d="M24.255 0.914c-0.481-0.491-1.26-0.491-1.741 0l-14.745 15.059-5.668-5.788c-0.481-0.491-1.26-0.491-1.741 0s-0.481 1.287 0 1.778l6.538 6.677c0.48 0.491 1.26 0.491 1.741 0l15.616-15.948c0.481-0.491 0.481-1.287 0-1.778z"></path>
        </symbol>

        <symbol id="icon-star" viewBox="0 0 20 20">
            <path d="M19.259 6.933c-0.061-0.179-0.172-0.336-0.321-0.452s-0.329-0.186-0.517-0.201l-5.504-0.437-2.382-5.273c-0.076-0.17-0.199-0.314-0.355-0.415s-0.338-0.155-0.524-0.155c-0.186-0-0.368 0.054-0.524 0.155s-0.28 0.245-0.356 0.415l-2.382 5.274-5.504 0.437c-0.185 0.015-0.362 0.082-0.509 0.195s-0.259 0.265-0.323 0.44c-0.063 0.174-0.074 0.363-0.033 0.544s0.134 0.346 0.267 0.475l4.068 3.965-1.439 6.229c-0.044 0.189-0.030 0.386 0.040 0.566s0.192 0.336 0.352 0.446c0.159 0.11 0.348 0.17 0.541 0.171s0.383-0.055 0.544-0.163l5.257-3.505 5.257 3.505c0.164 0.109 0.358 0.165 0.556 0.161s0.389-0.069 0.548-0.185c0.159-0.116 0.28-0.279 0.344-0.465s0.070-0.388 0.017-0.578l-1.766-6.179 4.38-3.941c0.287-0.259 0.392-0.662 0.268-1.028z"></path>
        </symbol>

        <symbol id="icon-empty-star" viewBox="0 0 20 20">
            <path d="M4.419 11.899l-1.439 6.229c-0.045 0.189-0.031 0.386 0.038 0.567s0.192 0.337 0.351 0.447 0.348 0.17 0.542 0.171c0.194 0.001 0.383-0.056 0.544-0.165l5.257-3.505 5.257 3.505c0.164 0.109 0.358 0.165 0.556 0.161s0.389-0.069 0.548-0.185c0.16-0.116 0.28-0.279 0.344-0.465s0.070-0.388 0.017-0.578l-1.766-6.179 4.38-3.941c0.14-0.126 0.24-0.291 0.288-0.474s0.041-0.375-0.020-0.554c-0.061-0.179-0.172-0.336-0.321-0.452s-0.329-0.186-0.517-0.201l-5.504-0.438-2.382-5.273c-0.076-0.17-0.199-0.314-0.355-0.415s-0.338-0.155-0.524-0.155c-0.186 0-0.368 0.054-0.524 0.155s-0.28 0.245-0.355 0.415l-2.382 5.273-5.504 0.437c-0.185 0.015-0.362 0.082-0.509 0.195s-0.259 0.265-0.323 0.44c-0.063 0.174-0.074 0.363-0.033 0.544s0.134 0.346 0.267 0.475l4.069 3.965zM7.173 7.723c0.172-0.014 0.338-0.073 0.479-0.173s0.253-0.235 0.324-0.393l1.737-3.844 1.737 3.844c0.071 0.158 0.183 0.293 0.324 0.393s0.307 0.159 0.479 0.173l3.835 0.304-3.158 2.842c-0.274 0.247-0.383 0.628-0.283 0.983l1.21 4.234-3.607-2.405c-0.158-0.106-0.345-0.163-0.535-0.163s-0.377 0.057-0.535 0.163l-3.769 2.513 1.014-4.389c0.037-0.161 0.032-0.33-0.014-0.489s-0.133-0.303-0.252-0.419l-2.933-2.86 3.949-0.315z"></path>
        </symbol>

        <symbol id="icon-instagram" viewBox="0 0 19 20">
            <path stroke-linejoin="round" stroke-linecap="round" stroke-miterlimit="4" stroke-width="1.6" d="M13.6 1.613h-8c-2.209 0-4 1.791-4 4v8c0 2.209 1.791 4 4 4h8c2.209 0 4-1.791 4-4v-8c0-2.209-1.791-4-4-4z"></path>
            <path stroke-linejoin="round" stroke-linecap="round" stroke-miterlimit="4" stroke-width="1.6" d="M12.8 9.109c0.099 0.666-0.015 1.346-0.325 1.943s-0.8 1.082-1.402 1.385c-0.601 0.303-1.282 0.408-1.947 0.301s-1.278-0.421-1.754-0.897-0.79-1.090-0.897-1.754c-0.107-0.664-0.002-1.346 0.301-1.947s0.787-1.092 1.385-1.402c0.597-0.31 1.277-0.424 1.943-0.325 0.679 0.101 1.308 0.417 1.793 0.903s0.802 1.114 0.903 1.793z"></path>
            <path stroke-linejoin="round" stroke-linecap="round" stroke-miterlimit="4" stroke-width="1.6" d="M14 5.213h0.008"></path>
        </symbol>

        <symbol id="icon-facebook" viewBox="0 0 20 20">
            <path stroke-linejoin="round" stroke-linecap="round" stroke-miterlimit="4" stroke-width="1.6667" d="M15 1.667h-2.5c-1.105 0-2.165 0.439-2.946 1.22s-1.22 1.841-1.22 2.946v2.5h-2.5v3.333h2.5v6.667h3.333v-6.667h2.5l0.833-3.333h-3.333v-2.5c0-0.221 0.088-0.433 0.244-0.589s0.368-0.244 0.589-0.244h2.5v-3.333z"></path>
        </symbol>

        <symbol id="icon-twitter" viewBox="0 0 24 20">
            <path stroke-linejoin="round" stroke-linecap="round" stroke-miterlimit="4" stroke-width="2" d="M23 1.010c-0.958 0.675-2.018 1.192-3.14 1.53-0.602-0.692-1.403-1.183-2.293-1.406s-1.828-0.167-2.685 0.161c-0.857 0.327-1.594 0.91-2.109 1.669s-0.785 1.659-0.773 2.576v1c-1.757 0.046-3.499-0.344-5.069-1.135s-2.921-1.957-3.931-3.395c0 0-4 9 5 13-2.059 1.398-4.513 2.099-7 2 9 5 20 0 20-11.5-0.001-0.279-0.028-0.556-0.080-0.83 1.021-1.007 1.741-2.277 2.080-3.67v0z"></path>
        </symbol>

        <symbol id="icon-airbnb" viewBox="0 0 64 20">
            <path fill="#ff385c" style="fill: var(--color1, #ff385c)" d="M18.232 14.174c-0.1-0.244-0.193-0.5-0.293-0.719l-0.461-1.044-0.019-0.019c-1.372-3-2.837-6.050-4.39-9.050l-0.062-0.125c-0.156-0.294-0.312-0.619-0.474-0.919-0.2-0.356-0.393-0.738-0.711-1.1-0.31-0.379-0.7-0.685-1.142-0.895s-0.925-0.319-1.414-0.319c-0.489 0-0.972 0.109-1.414 0.319s-0.832 0.515-1.142 0.895c-0.293 0.363-0.511 0.744-0.711 1.1-0.156 0.325-0.312 0.644-0.474 0.938l-0.062 0.125c-1.528 3-3.018 6.050-4.39 9.050l-0.037 0.037c-0.137 0.325-0.299 0.663-0.455 1.025-0.1 0.219-0.2 0.456-0.299 0.719-0.269 0.687-0.355 1.433-0.25 2.164s0.4 1.421 0.853 2.004 1.050 1.036 1.731 1.317c0.681 0.281 1.424 0.379 2.155 0.284 0.7-0.092 1.375-0.326 1.983-0.688 0.811-0.456 1.59-1.119 2.463-2.075 0.873 0.956 1.671 1.619 2.463 2.081 0.762 0.448 1.624 0.695 2.507 0.719 1.022 0.004 2.011-0.362 2.785-1.032s1.279-1.597 1.424-2.612c0.167-0.729 0.111-1.491-0.162-2.188v0.006zM9.278 15.212c-1.072-1.375-1.771-2.638-2.008-3.719-0.098-0.401-0.119-0.816-0.062-1.225 0.044-0.319 0.162-0.6 0.324-0.837 0.374-0.544 1.029-0.881 1.746-0.881 0.341-0.010 0.678 0.064 0.983 0.217s0.567 0.379 0.763 0.658c0.162 0.25 0.281 0.525 0.318 0.844 0.062 0.363 0.037 0.781-0.062 1.225-0.237 1.063-0.935 2.338-2.002 3.719zM17.222 16.137c-0.071 0.515-0.275 1.002-0.592 1.414s-0.736 0.732-1.216 0.93c-0.474 0.2-0.998 0.256-1.509 0.2-0.499-0.063-0.998-0.225-1.509-0.525-0.849-0.526-1.612-1.179-2.263-1.938 1.309-1.625 2.101-3.106 2.401-4.425 0.143-0.625 0.162-1.187 0.1-1.706-0.078-0.492-0.261-0.961-0.536-1.375-0.314-0.449-0.734-0.814-1.222-1.063s-1.030-0.373-1.577-0.362c-1.154 0-2.182 0.537-2.806 1.419-0.281 0.413-0.462 0.886-0.53 1.381-0.081 0.525-0.062 1.106 0.1 1.706 0.299 1.319 1.11 2.819 2.401 4.438-0.64 0.773-1.405 1.432-2.263 1.95-0.518 0.3-1.010 0.456-1.509 0.519-0.776 0.1-1.559-0.112-2.181-0.588s-1.030-1.179-1.137-1.956c-0.062-0.5-0.019-1 0.181-1.563 0.062-0.2 0.156-0.4 0.256-0.637 0.137-0.325 0.299-0.663 0.455-1l0.025-0.044c1.347-2.981 2.818-6.025 4.346-9.006l0.062-0.125c0.156-0.3 0.312-0.619 0.474-0.919 0.162-0.319 0.337-0.625 0.561-0.875 0.194-0.232 0.437-0.419 0.711-0.548s0.573-0.195 0.876-0.195c0.303 0 0.601 0.066 0.876 0.195s0.517 0.315 0.711 0.548c0.218 0.25 0.399 0.556 0.561 0.875 0.156 0.3 0.312 0.625 0.474 0.919l0.062 0.125c1.521 2.981 2.993 6.025 4.365 9.006l0.019 0.019c0.162 0.325 0.299 0.687 0.455 1 0.1 0.244 0.2 0.437 0.262 0.644 0.118 0.563 0.181 1.063 0.118 1.563zM25.901 15.074c-0.47 0.007-0.935-0.092-1.362-0.29s-0.803-0.49-1.101-0.853c-0.671-0.775-1.027-1.774-0.998-2.8-0.010-1.048 0.357-2.064 1.035-2.863 0.313-0.368 0.704-0.663 1.143-0.864s0.918-0.303 1.401-0.298c0.454-0.012 0.905 0.091 1.308 0.301s0.747 0.519 0.999 0.899l0.062-0.981h1.821v7.55h-1.827l-0.062-1.1c-0.259 0.405-0.618 0.738-1.041 0.965s-0.898 0.343-1.378 0.335zM26.375 13.274c0.362 0 0.68-0.1 0.979-0.281 0.274-0.2 0.499-0.462 0.673-0.781 0.156-0.319 0.237-0.7 0.237-1.125 0.024-0.369-0.047-0.738-0.208-1.071s-0.405-0.619-0.709-0.829c-0.292-0.182-0.629-0.279-0.973-0.279s-0.681 0.097-0.973 0.279c-0.274 0.2-0.499 0.462-0.673 0.781-0.165 0.352-0.246 0.737-0.237 1.125-0.024 0.369 0.047 0.738 0.208 1.071s0.405 0.619 0.709 0.829c0.293 0.181 0.611 0.281 0.966 0.281zM33.328 5.287c0 0.219-0.037 0.419-0.137 0.581-0.1 0.156-0.237 0.3-0.418 0.4s-0.374 0.138-0.574 0.138-0.399-0.038-0.58-0.138c-0.171-0.095-0.315-0.233-0.418-0.4-0.097-0.178-0.144-0.379-0.137-0.581 0-0.225 0.044-0.425 0.137-0.581 0.1-0.188 0.243-0.3 0.418-0.4 0.181-0.1 0.374-0.144 0.58-0.144 0.198-0.005 0.395 0.043 0.57 0.137s0.322 0.232 0.428 0.401c0.091 0.182 0.136 0.384 0.131 0.588zM31.208 14.849v-7.537h1.983v7.55h-1.989l0.006-0.013zM38.49 9.287v0.025c-0.094-0.044-0.218-0.063-0.312-0.081-0.125-0.025-0.224-0.025-0.343-0.025-0.555 0-0.973 0.162-1.247 0.5-0.299 0.344-0.436 0.825-0.436 1.444v3.706h-1.989v-7.55h1.827l0.062 1.144c0.2-0.4 0.436-0.7 0.773-0.925 0.335-0.219 0.729-0.328 1.129-0.312 0.143 0 0.281 0.012 0.399 0.037 0.062 0.019 0.1 0.019 0.137 0.038v2zM39.289 14.849v-10.637h1.983v4.062c0.28-0.362 0.598-0.644 0.998-0.862 0.632-0.31 1.349-0.399 2.037-0.25s1.306 0.525 1.754 1.069c0.672 0.777 1.029 1.778 0.998 2.806 0.010 1.048-0.357 2.064-1.035 2.862-0.314 0.368-0.704 0.663-1.143 0.864s-0.918 0.303-1.401 0.298c-0.454 0.012-0.905-0.091-1.308-0.301s-0.747-0.519-0.999-0.899l-0.062 0.981-1.821 0.019v-0.013zM43.123 13.274c0.356 0 0.674-0.1 0.973-0.281 0.274-0.2 0.499-0.462 0.674-0.781 0.162-0.319 0.237-0.7 0.237-1.125 0-0.419-0.075-0.8-0.237-1.119-0.164-0.307-0.394-0.574-0.674-0.781-0.292-0.182-0.629-0.279-0.973-0.279s-0.681 0.097-0.972 0.279c-0.281 0.2-0.499 0.462-0.68 0.781-0.165 0.352-0.246 0.737-0.237 1.125-0.024 0.369 0.047 0.738 0.208 1.071s0.405 0.619 0.709 0.829c0.293 0.181 0.611 0.281 0.972 0.281zM47.806 14.856v-7.55h1.827l0.062 0.981c0.23-0.376 0.555-0.684 0.944-0.892s0.824-0.308 1.264-0.29c0.502-0.009 0.996 0.131 1.42 0.403s0.758 0.662 0.962 1.122c0.218 0.475 0.337 1.062 0.337 1.719v4.525h-1.989v-4.262c0-0.525-0.118-0.938-0.355-1.244-0.237-0.3-0.561-0.462-0.973-0.462-0.299 0-0.561 0.062-0.792 0.2-0.218 0.144-0.399 0.325-0.536 0.581-0.139 0.259-0.208 0.55-0.2 0.844v4.325h-1.97zM55.613 14.856v-10.65h1.989v4.062c0.27-0.365 0.62-0.661 1.024-0.866s0.85-0.313 1.302-0.315c0.47-0.007 0.935 0.092 1.362 0.29s0.803 0.49 1.101 0.853c0.668 0.777 1.021 1.775 0.991 2.8 0.011 1.048-0.357 2.065-1.035 2.862-0.314 0.368-0.704 0.663-1.143 0.864s-0.918 0.303-1.401 0.298c-0.454 0.012-0.905-0.091-1.308-0.301s-0.747-0.519-0.999-0.899l-0.056 0.981-1.827 0.019zM59.466 13.274c0.362 0 0.68-0.1 0.973-0.281 0.28-0.2 0.499-0.462 0.68-0.781 0.156-0.319 0.237-0.7 0.237-1.125 0.024-0.369-0.047-0.738-0.208-1.071s-0.405-0.619-0.708-0.829c-0.292-0.182-0.629-0.279-0.973-0.279s-0.681 0.097-0.973 0.279c-0.274 0.2-0.499 0.462-0.673 0.781-0.174 0.348-0.256 0.736-0.237 1.125-0.024 0.369 0.048 0.738 0.208 1.071s0.405 0.619 0.709 0.829c0.293 0.181 0.592 0.281 0.966 0.281z"></path>
        </symbol>

        <symbol id="icon-fedex" viewBox="0 0 67 20">
            <path fill="#f60" style="fill: var(--color2, #f60)" d="M49.576 19.401l5.56-6.158-5.56-6.159h5.866l2.754 2.991 2.651-2.991h5.661l-5.533 6.133 5.61 6.183h-5.89l-2.729-3.016-2.703 3.016h-5.687z"></path>
            <path fill="#f60" style="fill: var(--color2, #f60)" d="M49.576 4.324h-6.297v2.761h6.297v4.161h-6.297v3.819h6.297v4.336h-10.925v-19.401h10.925v4.324z"></path>
            <path fill="#652c8f" style="fill: var(--color3, #652c8f)" d="M34.042 0v7.94h-0.051c-1.020-1.156-2.295-1.558-3.774-1.558-3.030 0-5.312 2.030-6.113 4.715-0.914-2.958-3.27-4.77-6.764-4.77-2.837 0-5.078 1.255-6.247 3.301v-2.543h-5.865v-2.761h6.4v-4.325h-11.628v19.402h5.228v-8.156h5.211c-0.155 0.599-0.238 1.241-0.238 1.917 0 4.047 3.137 6.887 7.139 6.887 3.366 0 5.584-1.558 6.758-4.398h-4.48c-0.606 0.853-1.066 1.107-2.277 1.107-1.405 0-2.616-1.208-2.616-2.641h9.123c0.396 3.215 2.936 5.987 6.422 5.987 1.504 0 2.881-0.729 3.723-1.96h0.051v1.256h4.609v-19.401h-4.609zM14.87 11.304c0.291-1.232 1.26-2.038 2.471-2.038 1.332 0 2.253 0.781 2.495 2.038 0.102 0-4.966 0-4.966 0zM31.246 16.447c-1.699 0-2.755-1.56-2.755-3.189 0-1.741 0.918-3.416 2.755-3.416 1.904 0 2.663 1.675 2.663 3.416-0 1.651-0.804 3.189-2.663 3.189z"></path>
        </symbol>

        <symbol id="icon-google" viewBox="0 0 58 20">
            <path fill="#ea4335" style="fill: var(--color4, #ea4335)" d="M24.852 10.256c0 2.776-2.145 4.822-4.777 4.822s-4.777-2.046-4.777-4.822c0-2.796 2.145-4.822 4.777-4.822s4.777 2.026 4.777 4.822zM22.761 10.256c0-1.735-1.243-2.922-2.686-2.922s-2.686 1.187-2.686 2.922c0 1.717 1.243 2.922 2.686 2.922s2.686-1.207 2.686-2.922z"></path>
            <path fill="#fbbc05" style="fill: var(--color5, #fbbc05)" d="M35.158 10.256c0 2.776-2.145 4.822-4.777 4.822s-4.777-2.046-4.777-4.822c0-2.793 2.145-4.822 4.777-4.822s4.777 2.026 4.777 4.822zM33.067 10.256c0-1.735-1.243-2.922-2.686-2.922s-2.686 1.187-2.686 2.922c0 1.717 1.243 2.922 2.686 2.922s2.686-1.207 2.686-2.922z"></path>
            <path fill="#4285f4" style="fill: var(--color6, #4285f4)" d="M45.034 5.726v8.657c0 3.561-2.074 5.015-4.526 5.015-2.308 0-3.697-1.563-4.221-2.841l1.821-0.767c0.324 0.785 1.119 1.711 2.398 1.711 1.569 0 2.542-0.98 2.542-2.826v-0.693h-0.073c-0.468 0.585-1.37 1.096-2.508 1.096-2.381 0-4.563-2.1-4.563-4.802 0-2.722 2.181-4.839 4.563-4.839 1.136 0 2.038 0.511 2.508 1.078h0.073v-0.785h1.986v-0.002zM43.196 10.274c0-1.698-1.118-2.939-2.542-2.939-1.443 0-2.652 1.241-2.652 2.939 0 1.68 1.209 2.904 2.652 2.904 1.424 0 2.542-1.224 2.542-2.904z"></path>
            <path fill="#34a853" style="fill: var(--color7, #34a853)" d="M48.309 0.652v14.13h-2.040v-14.13h2.040z"></path>
            <path fill="#ea4335" style="fill: var(--color4, #ea4335)" d="M56.257 11.843l1.623 1.096c-0.524 0.785-1.786 2.137-3.968 2.137-2.705 0-4.726-2.117-4.726-4.822 0-2.867 2.038-4.822 4.492-4.822 2.471 0 3.68 1.991 4.075 3.067l0.217 0.548-6.366 2.67c0.487 0.967 1.245 1.461 2.308 1.461 1.065 0 1.804-0.53 2.344-1.335zM51.261 10.109l4.256-1.789c-0.234-0.602-0.938-1.022-1.767-1.022-1.063 0-2.542 0.95-2.488 2.811z"></path>
            <path fill="#4285f4" style="fill: var(--color6, #4285f4)" d="M7.577 9.002v-2.046h6.808c0.067 0.357 0.101 0.778 0.101 1.235 0 1.535-0.414 3.433-1.75 4.785-1.299 1.37-2.959 2.1-5.157 2.1-4.075 0-7.502-3.361-7.502-7.487s3.427-7.487 7.502-7.487c2.254 0 3.86 0.896 5.067 2.063l-1.426 1.443c-0.865-0.822-2.038-1.461-3.644-1.461-2.976 0-5.303 2.428-5.303 5.441s2.327 5.441 5.303 5.441c1.93 0 3.029-0.785 3.734-1.498 0.571-0.578 0.947-1.404 1.095-2.533l-4.829 0.002z"></path>
        </symbol>

        <symbol id="icon-microsoft" viewBox="0 0 96 20">
            <path fill="#737373" style="fill: var(--color8, #737373)" d="M34.052 11.519l-0.575 1.581h-0.048c-0.096-0.357-0.272-0.899-0.559-1.55l-3.083-7.519h-3.019v11.985h1.997v-7.395c0-0.465 0-0.992-0.016-1.643-0.016-0.326-0.048-0.574-0.064-0.76h0.048c0.096 0.465 0.208 0.806 0.287 1.023l3.705 8.744h1.406l3.674-8.822c0.080-0.202 0.16-0.605 0.24-0.946h0.048c-0.048 0.884-0.080 1.674-0.096 2.155v7.597h2.124v-11.969h-2.907l-3.162 7.519zM42.134 7.38h2.076v8.589h-2.076v-8.589zM43.188 3.752c-0.351 0-0.639 0.124-0.878 0.341s-0.367 0.496-0.367 0.837c0 0.326 0.128 0.605 0.367 0.822s0.527 0.326 0.878 0.326c0.351 0 0.655-0.124 0.878-0.326 0.24-0.217 0.367-0.496 0.367-0.822s-0.128-0.605-0.367-0.837c-0.208-0.217-0.511-0.341-0.878-0.341zM51.573 7.302c-0.383-0.077-0.783-0.124-1.166-0.124-0.942 0-1.805 0.202-2.524 0.605s-1.294 0.961-1.661 1.659c-0.383 0.713-0.575 1.535-0.575 2.481 0 0.822 0.192 1.55 0.559 2.217 0.367 0.651 0.878 1.178 1.565 1.535 0.655 0.357 1.422 0.543 2.284 0.543 0.99 0 1.837-0.202 2.508-0.574l0.016-0.016v-1.86l-0.080 0.062c-0.303 0.217-0.655 0.403-1.006 0.512-0.367 0.124-0.703 0.186-0.99 0.186-0.831 0-1.485-0.233-1.949-0.744-0.479-0.496-0.719-1.178-0.719-2.031 0-0.884 0.24-1.581 0.735-2.093s1.15-0.775 1.949-0.775c0.671 0 1.358 0.217 1.981 0.651l0.080 0.062v-1.969l-0.016-0.015c-0.272-0.109-0.575-0.233-0.99-0.31zM58.425 7.24c-0.511 0-0.99 0.155-1.406 0.481-0.351 0.279-0.591 0.682-0.799 1.163h-0.016v-1.504h-2.076v8.589h2.076v-4.388c0-0.744 0.16-1.364 0.511-1.814 0.351-0.465 0.799-0.698 1.342-0.698 0.192 0 0.383 0.047 0.623 0.078 0.223 0.062 0.383 0.124 0.495 0.202l0.080 0.062v-2.015l-0.048-0.016c-0.144-0.093-0.431-0.14-0.783-0.14zM64.079 7.194c-1.454 0-2.619 0.419-3.434 1.24-0.831 0.822-1.23 1.953-1.23 3.38 0 1.333 0.415 2.419 1.214 3.209 0.798 0.775 1.885 1.178 3.242 1.178 1.421 0 2.555-0.419 3.37-1.256 0.831-0.837 1.23-1.953 1.23-3.333 0-1.364-0.384-2.45-1.166-3.24-0.751-0.791-1.852-1.178-3.226-1.178zM65.74 13.798c-0.383 0.481-0.99 0.713-1.741 0.713s-1.358-0.233-1.789-0.744c-0.431-0.481-0.639-1.178-0.639-2.062 0-0.915 0.224-1.612 0.639-2.109 0.431-0.496 1.022-0.744 1.773-0.744 0.735 0 1.309 0.233 1.725 0.713s0.639 1.178 0.639 2.093c-0.032 0.93-0.208 1.659-0.607 2.14zM73.104 10.946c-0.655-0.264-1.071-0.465-1.262-0.636-0.16-0.155-0.24-0.372-0.24-0.651 0-0.233 0.096-0.465 0.336-0.62s0.511-0.233 0.91-0.233c0.352 0 0.719 0.062 1.070 0.155s0.671 0.233 0.926 0.419l0.080 0.062v-1.891l-0.048-0.016c-0.24-0.093-0.559-0.186-0.942-0.264-0.384-0.062-0.735-0.093-1.022-0.093-0.991 0-1.805 0.233-2.444 0.744-0.639 0.481-0.942 1.132-0.942 1.891 0 0.403 0.064 0.76 0.208 1.054s0.351 0.574 0.639 0.806c0.287 0.217 0.702 0.465 1.278 0.698 0.479 0.202 0.846 0.357 1.070 0.481s0.368 0.264 0.479 0.372c0.079 0.124 0.128 0.279 0.128 0.481 0 0.574-0.447 0.853-1.358 0.853-0.351 0-0.719-0.062-1.15-0.202s-0.831-0.341-1.166-0.574l-0.080-0.062v1.969l0.048 0.015c0.304 0.14 0.671 0.233 1.118 0.341 0.447 0.077 0.846 0.14 1.198 0.14 1.070 0 1.948-0.233 2.571-0.744 0.639-0.496 0.974-1.132 0.974-1.954 0-0.574-0.159-1.085-0.511-1.473-0.464-0.372-1.038-0.76-1.869-1.070zM80.962 7.194c-1.454 0-2.619 0.419-3.434 1.24s-1.23 1.953-1.23 3.38c0 1.333 0.415 2.419 1.214 3.209 0.798 0.775 1.885 1.178 3.242 1.178 1.421 0 2.555-0.419 3.37-1.256 0.831-0.837 1.23-1.953 1.23-3.333 0-1.364-0.384-2.45-1.166-3.24-0.751-0.791-1.852-1.178-3.226-1.178zM82.606 13.798c-0.383 0.481-0.99 0.713-1.741 0.713-0.767 0-1.358-0.233-1.789-0.744-0.431-0.481-0.639-1.178-0.639-2.062 0-0.915 0.224-1.612 0.639-2.109 0.431-0.496 1.022-0.744 1.773-0.744 0.718 0 1.309 0.233 1.725 0.713s0.639 1.178 0.639 2.093c0 0.93-0.208 1.659-0.607 2.14zM96.454 9.039v-1.659h-2.092v-2.543l-0.064 0.016-2.029 0.589v1.938h-3.13v-1.085c0-0.496 0.128-0.884 0.351-1.132s0.559-0.372 0.974-0.372c0.288 0 0.591 0.062 0.926 0.202l0.080 0.047v-1.752l-0.048-0.016c-0.287-0.093-0.671-0.155-1.166-0.155-0.623 0-1.166 0.14-1.661 0.372-0.495 0.264-0.862 0.62-1.134 1.101-0.272 0.465-0.415 0.992-0.415 1.597v1.194h-1.454v1.643h1.454v6.946h2.092v-6.93h3.13v4.419c0 1.814 0.879 2.729 2.636 2.729 0.287 0 0.591-0.047 0.878-0.093 0.304-0.062 0.527-0.14 0.655-0.202l0.016-0.016v-1.659l-0.079 0.062c-0.128 0.078-0.24 0.14-0.431 0.186-0.16 0.047-0.304 0.062-0.415 0.062-0.415 0-0.703-0.093-0.911-0.326-0.192-0.217-0.288-0.574-0.288-1.101v-4.062h2.124z"></path>
            <path fill="#f25022" style="fill: var(--color9, #f25022)" d="M0 0h9.791v9.504h-9.791v-9.504z"></path>
            <path fill="#7fba00" style="fill: var(--color10, #7fba00)" d="M10.813 0h9.791v9.504h-9.791v-9.504z"></path>
            <path fill="#00a4ef" style="fill: var(--color11, #00a4ef)" d="M0 10.496h9.791v9.504h-9.791v-9.504z"></path>
            <path fill="#ffb900" style="fill: var(--color12, #ffb900)" d="M10.813 10.496h9.791v9.504h-9.791v-9.504z"></path>
        </symbol>

        <symbol id="icon-enterpreneur" viewBox="0 0 20 20">
            <path fill="#d6b1ff" style="fill: var(--color1, #d6b1ff)" d="M15 8.333h5l-2.5-3.333-2.5 3.333zM15 11.667h5l-2.5 3.333-2.5-3.333z"></path>
            <path fill="#02897a" style="fill: var(--color2, #02897a)" d="M0.833 0h5v20h-5c-0.221 0-0.433-0.088-0.589-0.244s-0.244-0.368-0.244-0.589v-18.333c0-0.221 0.088-0.433 0.244-0.589s0.368-0.244 0.589-0.244z"></path>
            <path fill="#02897a" style="fill: var(--color2, #02897a)" d="M7.5 0h5c0.221 0 0.433 0.088 0.589 0.244s0.244 0.368 0.244 0.589v18.333c0 0.221-0.088 0.433-0.244 0.589s-0.368 0.244-0.589 0.244h-5v-20z"></path>
        </symbol>

        <symbol id="icon-accountants" viewBox="0 0 20 20">
            <path fill="#d6b1ff" style="fill: var(--color1, #d6b1ff)" d="M17.5 20h-7.5c-0.221 0-0.433-0.088-0.589-0.244s-0.244-0.368-0.244-0.589v-1.667c0-0.221 0.088-0.433 0.244-0.589s0.368-0.244 0.589-0.244h7.5c0.221 0 0.433 0.088 0.589 0.244s0.244 0.368 0.244 0.589v1.667c0 0.221-0.088 0.433-0.244 0.589s-0.368 0.244-0.589 0.244z"></path>
            <path fill="#11b5e4" style="fill: var(--color3, #11b5e4)" d="M17.5 0h-15c-0.221 0-0.433 0.088-0.589 0.244s-0.244 0.368-0.244 0.589v1.667c0 0.221 0.088 0.433 0.244 0.589s0.368 0.244 0.589 0.244h15c0.221 0 0.433-0.088 0.589-0.244s0.244-0.368 0.244-0.589v-1.667c0-0.221-0.088-0.433-0.244-0.589s-0.368-0.244-0.589-0.244z"></path>
            <path fill="#11b5e4" style="fill: var(--color3, #11b5e4)" d="M17.5 5h-15c-0.221 0-0.433 0.088-0.589 0.244s-0.244 0.368-0.244 0.589v8.333c0 0.221 0.088 0.433 0.244 0.589s0.368 0.244 0.589 0.244h15c0.221 0 0.433-0.088 0.589-0.244s0.244-0.368 0.244-0.589v-8.333c0-0.221-0.088-0.433-0.244-0.589s-0.368-0.244-0.589-0.244z"></path>
        </symbol>

        <symbol id="icon-universities" viewBox="0 0 21 20">
            <path fill="#d6b1ff" style="fill: var(--color1, #d6b1ff)" d="M4.314 0.833h-2.5c-0.221 0-0.433 0.088-0.589 0.244s-0.244 0.368-0.244 0.589v16.667c0 0.221 0.088 0.433 0.244 0.589s0.368 0.244 0.589 0.244h2.5v-18.333z"></path>
            <path fill="#f03e3d" style="fill: var(--color4, #f03e3d)" d="M5.981 19.167h8.333v-18.333h-8.333v18.333zM10.147 15.833c-0.221 0-0.433-0.088-0.589-0.244s-0.244-0.368-0.244-0.589 0.088-0.433 0.244-0.589c0.156-0.156 0.368-0.244 0.589-0.244s0.433 0.088 0.589 0.244c0.156 0.156 0.244 0.368 0.244 0.589s-0.088 0.433-0.244 0.589c-0.156 0.156-0.368 0.244-0.589 0.244zM10.147 4.167c0.221 0 0.433 0.088 0.589 0.244s0.244 0.368 0.244 0.589-0.088 0.433-0.244 0.589c-0.156 0.156-0.368 0.244-0.589 0.244s-0.433-0.088-0.589-0.244c-0.156-0.156-0.244-0.368-0.244-0.589s0.088-0.433 0.244-0.589c0.156-0.156 0.368-0.244 0.589-0.244zM10.147 9.167c0.221 0 0.433 0.088 0.589 0.244s0.244 0.368 0.244 0.589-0.088 0.433-0.244 0.589c-0.156 0.156-0.368 0.244-0.589 0.244s-0.433-0.088-0.589-0.244c-0.156-0.156-0.244-0.368-0.244-0.589s0.088-0.433 0.244-0.589c0.156-0.156 0.368-0.244 0.589-0.244z"></path>
            <path fill="#f03e3d" style="fill: var(--color4, #f03e3d)" d="M18.481 0.833h-2.5v18.333h2.5c0.221 0 0.433-0.088 0.589-0.244s0.244-0.368 0.244-0.589v-16.667c0-0.221-0.088-0.433-0.244-0.589s-0.368-0.244-0.589-0.244z"></path>
        </symbol>

        <symbol id="icon-circle_right" viewBox="0 0 19 20">
            <path d="M10.638 10.928h-5.876v-1.905h5.876l-2.457-2.467 1.343-1.343 4.762 4.762-4.762 4.762-1.343-1.343 2.457-2.467z"></path>
            <path d="M0 9.975c0 5.26 4.264 9.524 9.524 9.524s9.524-4.264 9.524-9.524c0-5.26-4.264-9.524-9.524-9.524s-9.524 4.264-9.524 9.524zM1.905 9.975c0-4.208 3.411-7.619 7.619-7.619s7.619 3.411 7.619 7.619c0 4.208-3.411 7.619-7.619 7.619s-7.619-3.411-7.619-7.619z"></path>
        </symbol>

        <symbol id="icon-twitter-square" viewBox="0 0 39 32">
            <path d="M37.677 4.611c-1.352 0.583-2.822 1.003-4.337 1.166 1.573-0.934 2.751-2.411 3.313-4.152-1.476 0.878-3.093 1.494-4.779 1.82-0.705-0.753-1.557-1.354-2.504-1.763s-1.968-0.62-2.999-0.617c-4.174 0-7.53 3.383-7.53 7.535 0 0.583 0.071 1.166 0.186 1.727-6.25-0.327-11.823-3.313-15.529-7.884-0.675 1.153-1.029 2.466-1.025 3.803 0 2.615 1.329 4.92 3.357 6.276-1.195-0.047-2.361-0.376-3.405-0.958v0.093c0 3.661 2.588 6.696 6.038 7.394-0.648 0.168-1.314 0.254-1.983 0.256-0.49 0-0.954-0.049-1.422-0.115 0.954 2.986 3.732 5.154 7.040 5.225-2.588 2.027-5.83 3.22-9.35 3.22-0.632 0-1.215-0.022-1.82-0.093 3.339 2.142 7.301 3.379 11.567 3.379 13.851 0 21.43-11.475 21.43-21.434 0-0.327 0-0.654-0.022-0.98 1.466-1.073 2.752-2.403 3.776-3.896z"></path>
        </symbol>

        <symbol id="icon-facebook-square" viewBox="0 0 32 32">
            <path d="M30.264 0.468h-28.566c-0.687 0-1.242 0.555-1.242 1.242v28.566c0 0.687 0.555 1.242 1.242 1.242h28.566c0.687 0 1.242-0.555 1.242-1.242v-28.566c0-0.687-0.555-1.242-1.242-1.242zM26.678 9.531h-2.48c-1.945 0-2.321 0.924-2.321 2.282v2.992h4.642l-0.605 4.685h-4.037v12.028h-4.84v-12.024h-4.048v-4.689h4.048v-3.454c0-4.009 2.449-6.195 6.028-6.195 1.715 0 3.187 0.128 3.617 0.186v4.188h-0.004z"></path>
        </symbol>

        <symbol id="icon-linkedin-square" viewBox="0 0 32 32">
            <path d="M30.253 0.468h-28.566c-0.687 0-1.242 0.555-1.242 1.242v28.566c0 0.687 0.555 1.242 1.242 1.242h28.566c0.687 0 1.242-0.555 1.242-1.242v-28.566c0-0.687-0.555-1.242-1.242-1.242zM9.655 26.927h-4.607v-14.819h4.607v14.819zM7.354 10.082c-0.528 0-1.044-0.157-1.484-0.45s-0.781-0.71-0.984-1.198-0.255-1.025-0.152-1.543c0.103-0.518 0.357-0.994 0.731-1.367s0.849-0.628 1.367-0.731c0.518-0.103 1.055-0.050 1.543 0.152s0.905 0.544 1.198 0.984c0.293 0.439 0.45 0.955 0.45 1.484-0.004 1.475-1.199 2.67-2.67 2.67zM26.904 26.927h-4.603v-7.208c0-1.719-0.031-3.928-2.395-3.928-2.395 0-2.763 1.871-2.763 3.804v7.332h-4.599v-14.819h4.417v2.026h0.062c0.613-1.164 2.115-2.395 4.359-2.395 4.665 0 5.523 3.070 5.523 7.060v8.127z"></path>
        </symbol>
    </defs>
</svg>
