<svg aria-hidden="true" style="position:absolute;width:0;height:0;overflow:hidden" xmlns="http://www.w3.org/2000/svg">
  <defs>
    <symbol id="icon-logo" viewBox="0 0 35 32">
      <path fill="#02bc6b" style="fill:var(--color1, #02bc6b)" d="M2.71 29.802A2.718 2.718 0 0 1 0 27.092v-9.473h6.821v-.011h4.099c1.057-.027 1.951-.948 1.951-2.032a2.047 2.047 0 0 0-2.032-2.032L0 13.546v-2.711c0-1.49 1.219-2.71 2.71-2.71h8.129c2.059 0 3.821.732 5.257 2.195 1.463 1.436 2.195 3.197 2.195 5.257 0 2.032-.705 3.794-2.141 5.23s-3.17 2.195-5.203 2.222H5.419v4.065c0 1.49-1.219 2.71-2.71 2.71z"/>
      <path fill="#02897a" style="fill:var(--color2, #02897a)" d="M21.706 4.98c2.994 2.908 4.502 6.529 4.502 10.646 0 4.048-1.445 7.666-4.393 10.583l-4.185-3.937c1.833-1.814 2.733-3.998 2.733-6.645 0-2.667-.927-4.848-2.804-6.671l4.146-3.975z"/>
      <path fill="#035b81" style="fill:var(--color3, #035b81)" d="M28.113 0c4.312 4.305 6.482 9.643 6.482 15.77 0 6.031-2.082 11.366-6.323 15.68l-4.039-3.946c3.159-3.214 4.707-7.112 4.707-11.734 0-4.669-1.6-8.563-4.828-11.786L28.114 0z"/>
      <path fill="#028e37" style="fill:var(--color4, #028e37)" d="M0 23.051h5.419v4.042c0 1.49-1.219 2.71-2.71 2.71s-2.71-1.219-2.71-2.71v-4.042z"/>
    </symbol>
    <symbol id="icon-burger" viewBox="0 0 29 32">
      <path stroke-linejoin="round" stroke-linecap="round" stroke-width="3.097" d="M3.613 16H25.29M3.613 8H25.29M3.613 24H25.29"/>
    </symbol>
    <symbol id="icon-close" viewBox="0 0 20 20">
      <path d="M10 8.586 2.929 1.515 1.515 2.929 8.586 10l-7.071 7.071 1.414 1.414L10 11.414l7.071 7.071 1.414-1.414L11.414 10l7.071-7.071-1.414-1.414L10 8.586z"/>
    </symbol>
    <symbol id="icon-play" viewBox="0 0 17 20">
      <path d="M16.235 9.175a1.125 1.125 0 0 1 0 1.951L2.198 19.183a1.125 1.125 0 0 1-1.685-.976V2.093c0-.865.935-1.406 1.685-.976l14.037 8.057z"/>
    </symbol>
    <symbol id="icon-arrow" viewBox="0 0 13 20">
      <path d="M11.901 11.254 1.145.498a.626.626 0 0 0-.473-.2.664.664 0 0 0-.252.053.674.674 0 0 0-.42.62v15.798a.674.674 0 0 0 .672.672.669.669 0 0 0 .473-.2l3.277-3.277 2.006 4.748a.676.676 0 0 0 .882.357l1.859-.788a.676.676 0 0 0 .357-.882l-2.111-5h4.013a.674.674 0 0 0 .62-.42.65.65 0 0 0-.147-.725z"/>
    </symbol>
    <symbol id="icon-line" viewBox="0 0 26 20">
      <path d="m13.546 8.015 1.671.778 2.487-.74V6.318c0-2.946-2.487-5.306-5.459-5.306-2.959 0-5.459 2.347-5.459 5.268v7.908c0 .727-.587 1.301-1.301 1.301s-1.301-.574-1.301-1.301v-3.342H0v3.393a5.47 5.47 0 0 0 5.472 5.472c2.997 0 5.472-2.411 5.472-5.395V6.51c0-.714.587-1.301 1.301-1.301s1.301.587 1.301 1.301v1.505zm6.76 2.832v3.508c0 .714-.587 1.288-1.301 1.288s-1.301-.574-1.301-1.288v-3.444l-2.487.74-1.671-.778v3.418c0 2.997 2.462 5.421 5.472 5.421a5.47 5.47 0 0 0 5.472-5.472v-3.393h-4.184z"/>
    </symbol>
    <symbol id="icon-heart" viewBox="0 0 21 20">
      <path d="M10.667 18.814a.74.74 0 0 0 .524-.214l7.417-7.143c.107-.107 2.726-2.5 2.726-5.357 0-3.488-2.131-5.571-5.691-5.571-2.083 0-4.036 1.643-4.976 2.571C9.727 2.171 7.774.529 5.691.529 2.131.529.001 2.612.001 6.1c0 2.857 2.619 5.25 2.714 5.333l7.429 7.167a.738.738 0 0 0 .524.214z"/>
    </symbol>
    <symbol id="icon-clock" viewBox="0 0 16 20">
      <path d="M14.79 1.643h1.008a.332.332 0 0 0 .336-.336V.635a.332.332 0 0 0-.336-.336H.336A.332.332 0 0 0 0 .635v.672c0 .189.147.336.336.336h1.008c0 3.887 1.859 6.702 3.918 8.067-2.059 1.366-3.918 4.181-3.918 8.067H.336a.332.332 0 0 0-.336.336v.672c0 .189.147.336.336.336h15.462a.332.332 0 0 0 .336-.336v-.672a.332.332 0 0 0-.336-.336H14.79c0-3.886-1.859-6.702-3.918-8.067 2.059-1.366 3.918-4.181 3.918-8.067zm-1.345 0a9.315 9.315 0 0 1-.893 4.034H3.581a9.315 9.315 0 0 1-.893-4.034h10.756zm-.598 12.773H3.288c.777-2.027 2.174-3.466 3.571-4.034h2.416c1.397.567 2.794 2.006 3.571 4.034z"/>
    </symbol>
    <symbol id="icon-check-mark" viewBox="0 0 25 20">
      <path d="M24.255.914a1.213 1.213 0 0 0-1.741 0L7.769 15.973l-5.668-5.788c-.481-.491-1.26-.491-1.741 0s-.481 1.287 0 1.778l6.538 6.677c.48.491 1.26.491 1.741 0L24.255 2.692a1.276 1.276 0 0 0 0-1.778z"/>
    </symbol>
    <symbol id="icon-star" viewBox="0 0 20 20">
      <path d="M19.259 6.933a.967.967 0 0 0-.838-.653l-5.504-.437L10.535.57A.96.96 0 0 0 9.132.155a.963.963 0 0 0-.356.415L6.394 5.844.89 6.281a.962.962 0 0 0-.832.635.97.97 0 0 0 .234 1.019L4.36 11.9l-1.439 6.229a.96.96 0 0 0 .392 1.012.961.961 0 0 0 1.085.008l5.257-3.505 5.257 3.505a.969.969 0 0 0 1.448-.489.974.974 0 0 0 .017-.578l-1.766-6.179 4.38-3.941a.965.965 0 0 0 .268-1.028z"/>
    </symbol>
    <symbol id="icon-empty-star" viewBox="0 0 20 20">
      <path d="M4.419 11.899 2.98 18.128a.963.963 0 0 0 1.475 1.02l5.257-3.505 5.257 3.505a.969.969 0 0 0 1.448-.489.974.974 0 0 0 .017-.578l-1.766-6.179 4.38-3.941a.968.968 0 0 0-.57-1.681l-5.504-.438L10.592.569A.96.96 0 0 0 9.189.154a.954.954 0 0 0-.355.415L6.452 5.842l-5.504.437a.962.962 0 0 0-.832.635.97.97 0 0 0 .234 1.019l4.069 3.965zm2.754-4.176a.963.963 0 0 0 .803-.566l1.737-3.844 1.737 3.844a.968.968 0 0 0 .803.566l3.835.304-3.158 2.842a.969.969 0 0 0-.283.983l1.21 4.234-3.607-2.405a.962.962 0 0 0-1.07 0l-3.769 2.513 1.014-4.389a.956.956 0 0 0-.266-.908l-2.933-2.86 3.949-.315z"/>
    </symbol>
    <symbol id="icon-instagram" viewBox="0 0 19 20">
      <path stroke-linejoin="round" stroke-linecap="round" stroke-width="1.6" d="M13.6 1.613h-8a4 4 0 0 0-4 4v8a4 4 0 0 0 4 4h8a4 4 0 0 0 4-4v-8a4 4 0 0 0-4-4z"/>
      <path stroke-linejoin="round" stroke-linecap="round" stroke-width="1.6" d="M12.8 9.109a3.197 3.197 0 0 1-1.727 3.328 3.196 3.196 0 0 1-3.701-.596 3.202 3.202 0 0 1 .789-5.103 3.197 3.197 0 0 1 3.736.578c.485.486.802 1.114.903 1.793zM14 5.213h.008"/>
    </symbol>
    <symbol id="icon-facebook" viewBox="0 0 20 20">
      <path stroke-linejoin="round" stroke-linecap="round" stroke-width="1.667" d="M15 1.667h-2.5a4.167 4.167 0 0 0-4.166 4.166v2.5h-2.5v3.333h2.5v6.667h3.333v-6.667h2.5L15 8.333h-3.333v-2.5A.833.833 0 0 1 12.5 5H15V1.667z"/>
    </symbol>
    <symbol id="icon-twitter" viewBox="0 0 24 20">
      <path stroke-linejoin="round" stroke-linecap="round" stroke-width="2" d="M23 1.01a10.921 10.921 0 0 1-3.14 1.53 4.485 4.485 0 0 0-4.978-1.245A4.48 4.48 0 0 0 12 5.54v1a10.67 10.67 0 0 1-9-4.53s-4 9 5 13a11.639 11.639 0 0 1-7 2c9 5 20 0 20-11.5a4.532 4.532 0 0 0-.08-.83A7.716 7.716 0 0 0 23 1.01z"/>
    </symbol>
    <symbol id="icon-airbnb" viewBox="0 0 64 20">
      <path fill="#ff385c" style="fill:var(--color1, #ff385c)" d="M18.232 14.174c-.1-.244-.193-.5-.293-.719l-.461-1.044-.019-.019c-1.372-3-2.837-6.05-4.39-9.05l-.062-.125c-.156-.294-.312-.619-.474-.919-.2-.356-.393-.738-.711-1.1A3.313 3.313 0 0 0 9.266-.016 3.295 3.295 0 0 0 6.71 1.198c-.293.363-.511.744-.711 1.1-.156.325-.312.644-.474.938l-.062.125c-1.528 3-3.018 6.05-4.39 9.05l-.037.037c-.137.325-.299.663-.455 1.025-.1.219-.2.456-.299.719a4.252 4.252 0 0 0 2.334 5.485 4.223 4.223 0 0 0 2.155.284 5.202 5.202 0 0 0 1.983-.688c.811-.456 1.59-1.119 2.463-2.075.873.956 1.671 1.619 2.463 2.081a5.225 5.225 0 0 0 2.507.719c1.022.004 2.011-.362 2.785-1.032s1.279-1.597 1.424-2.612a3.72 3.72 0 0 0-.162-2.188v.006zm-8.954 1.038c-1.072-1.375-1.771-2.638-2.008-3.719a3.26 3.26 0 0 1-.062-1.225c.044-.319.162-.6.324-.837.374-.544 1.029-.881 1.746-.881a2.055 2.055 0 0 1 1.746.875c.162.25.281.525.318.844.062.363.037.781-.062 1.225-.237 1.063-.935 2.338-2.002 3.719zm7.944.925c-.071.515-.275 1.002-.592 1.414s-.736.732-1.216.93c-.474.2-.998.256-1.509.2a3.904 3.904 0 0 1-1.509-.525 9.735 9.735 0 0 1-2.263-1.938c1.309-1.625 2.101-3.106 2.401-4.425a4.93 4.93 0 0 0 .1-1.706 3.466 3.466 0 0 0-.536-1.375c-.314-.449-.734-.814-1.222-1.063s-1.03-.373-1.577-.362c-1.154 0-2.182.537-2.806 1.419a3.238 3.238 0 0 0-.53 1.381 4.125 4.125 0 0 0 .1 1.706c.299 1.319 1.11 2.819 2.401 4.438a8.93 8.93 0 0 1-2.263 1.95c-.518.3-1.01.456-1.509.519a2.972 2.972 0 0 1-3.318-2.544c-.062-.5-.019-1 .181-1.563.062-.2.156-.4.256-.637.137-.325.299-.663.455-1l.025-.044a204.499 204.499 0 0 1 4.346-9.006l.062-.125c.156-.3.312-.619.474-.919.162-.319.337-.625.561-.875a2.055 2.055 0 0 1 2.463-.548c.275.129.517.315.711.548.218.25.399.556.561.875.156.3.312.625.474.919l.062.125a249.025 249.025 0 0 1 4.365 9.006l.019.019c.162.325.299.687.455 1 .1.244.2.437.262.644.118.563.181 1.063.118 1.563zm8.679-1.063a3.125 3.125 0 0 1-2.463-1.143 4.1 4.1 0 0 1-.998-2.8 4.36 4.36 0 0 1 1.035-2.863 3.31 3.31 0 0 1 2.544-1.162 2.679 2.679 0 0 1 2.307 1.2l.062-.981h1.821v7.55h-1.827l-.062-1.1a2.82 2.82 0 0 1-2.419 1.3zm.474-1.8c.362 0 .68-.1.979-.281.274-.2.499-.462.673-.781.156-.319.237-.7.237-1.125a2.14 2.14 0 0 0-.917-1.9 1.84 1.84 0 0 0-1.946 0c-.274.2-.499.462-.673.781a2.513 2.513 0 0 0-.237 1.125 2.14 2.14 0 0 0 .917 1.9c.293.181.611.281.966.281zm6.953-7.987c0 .219-.037.419-.137.581-.1.156-.237.3-.418.4s-.374.138-.574.138-.399-.038-.58-.138a1.145 1.145 0 0 1-.418-.4 1.133 1.133 0 0 1-.137-.581c0-.225.044-.425.137-.581.1-.188.243-.3.418-.4.181-.1.374-.144.58-.144a1.146 1.146 0 0 1 .998.538c.091.182.136.384.131.588zm-2.12 9.562V7.312h1.983v7.55h-1.989l.006-.013zm7.282-5.562v.025c-.094-.044-.218-.063-.312-.081-.125-.025-.224-.025-.343-.025-.555 0-.973.162-1.247.5-.299.344-.436.825-.436 1.444v3.706h-1.989v-7.55h1.827l.062 1.144c.2-.4.436-.7.773-.925a1.921 1.921 0 0 1 1.129-.312c.143 0 .281.012.399.037.062.019.1.019.137.038v2zm.799 5.562V4.212h1.983v4.062c.28-.362.598-.644.998-.862a3.123 3.123 0 0 1 3.791.819 4.1 4.1 0 0 1 .998 2.806 4.355 4.355 0 0 1-1.035 2.862c-.314.368-.704.663-1.143.864s-.918.303-1.401.298a2.679 2.679 0 0 1-2.307-1.2l-.062.981-1.821.019v-.013zm3.834-1.575c.356 0 .674-.1.973-.281.274-.2.499-.462.674-.781.162-.319.237-.7.237-1.125 0-.419-.075-.8-.237-1.119a2.345 2.345 0 0 0-.674-.781 1.84 1.84 0 0 0-1.945 0c-.281.2-.499.462-.68.781a2.513 2.513 0 0 0-.237 1.125 2.14 2.14 0 0 0 .917 1.9c.293.181.611.281.972.281zm4.683 1.582v-7.55h1.827l.062.981a2.474 2.474 0 0 1 2.208-1.182c.502-.009.996.131 1.42.403s.758.662.962 1.122c.218.475.337 1.062.337 1.719v4.525h-1.989v-4.262c0-.525-.118-.938-.355-1.244a1.182 1.182 0 0 0-.973-.462c-.299 0-.561.062-.792.2a1.562 1.562 0 0 0-.536.581c-.139.259-.208.55-.2.844v4.325h-1.97zm7.807 0V4.206h1.989v4.062a2.912 2.912 0 0 1 2.326-1.181 3.125 3.125 0 0 1 2.463 1.143 4.109 4.109 0 0 1 .991 2.8 4.348 4.348 0 0 1-1.035 2.862c-.314.368-.704.663-1.143.864s-.918.303-1.401.298a2.679 2.679 0 0 1-2.307-1.2l-.056.981-1.827.019zm3.853-1.582c.362 0 .68-.1.973-.281.28-.2.499-.462.68-.781.156-.319.237-.7.237-1.125a2.14 2.14 0 0 0-.916-1.9 1.84 1.84 0 0 0-1.946 0c-.274.2-.499.462-.673.781a2.27 2.27 0 0 0-.237 1.125 2.13 2.13 0 0 0 .917 1.9c.293.181.592.281.966.281z"/>
    </symbol>
    <symbol id="icon-fedex" viewBox="0 0 67 20">
      <path fill="#f60" style="fill:var(--color2, #f60)" d="m49.576 19.401 5.56-6.158-5.56-6.159h5.866l2.754 2.991 2.651-2.991h5.661l-5.533 6.133 5.61 6.183h-5.89l-2.729-3.016-2.703 3.016h-5.687z"/>
      <path fill="#f60" style="fill:var(--color2, #f60)" d="M49.576 4.324h-6.297v2.761h6.297v4.161h-6.297v3.819h6.297v4.336H38.651V0h10.925v4.324z"/>
      <path fill="#652c8f" style="fill:var(--color3, #652c8f)" d="M34.042 0v7.94h-.051c-1.02-1.156-2.295-1.558-3.774-1.558-3.03 0-5.312 2.03-6.113 4.715-.914-2.958-3.27-4.77-6.764-4.77-2.837 0-5.078 1.255-6.247 3.301V7.085H5.228V4.324h6.4V-.001H0v19.402h5.228v-8.156h5.211a7.644 7.644 0 0 0-.238 1.917c0 4.047 3.137 6.887 7.139 6.887 3.366 0 5.584-1.558 6.758-4.398h-4.48c-.606.853-1.066 1.107-2.277 1.107-1.405 0-2.616-1.208-2.616-2.641h9.123c.396 3.215 2.936 5.987 6.422 5.987a4.484 4.484 0 0 0 3.723-1.96h.051V19.4h4.609V-.001h-4.609zM14.87 11.304c.291-1.232 1.26-2.038 2.471-2.038 1.332 0 2.253.781 2.495 2.038H14.87zm16.376 5.143c-1.699 0-2.755-1.56-2.755-3.189 0-1.741.918-3.416 2.755-3.416 1.904 0 2.663 1.675 2.663 3.416 0 1.651-.804 3.189-2.663 3.189z"/>
    </symbol>
    <symbol id="icon-google" viewBox="0 0 58 20">
      <path fill="#ea4335" style="fill:var(--color4, #ea4335)" d="M24.852 10.256c0 2.776-2.145 4.822-4.777 4.822s-4.777-2.046-4.777-4.822c0-2.796 2.145-4.822 4.777-4.822s4.777 2.026 4.777 4.822zm-2.091 0c0-1.735-1.243-2.922-2.686-2.922s-2.686 1.187-2.686 2.922c0 1.717 1.243 2.922 2.686 2.922s2.686-1.207 2.686-2.922z"/>
      <path fill="#fbbc05" style="fill:var(--color5, #fbbc05)" d="M35.158 10.256c0 2.776-2.145 4.822-4.777 4.822s-4.777-2.046-4.777-4.822c0-2.793 2.145-4.822 4.777-4.822s4.777 2.026 4.777 4.822zm-2.091 0c0-1.735-1.243-2.922-2.686-2.922s-2.686 1.187-2.686 2.922c0 1.717 1.243 2.922 2.686 2.922s2.686-1.207 2.686-2.922z"/>
      <path fill="#4285f4" style="fill:var(--color6, #4285f4)" d="M45.034 5.726v8.657c0 3.561-2.074 5.015-4.526 5.015-2.308 0-3.697-1.563-4.221-2.841l1.821-.767c.324.785 1.119 1.711 2.398 1.711 1.569 0 2.542-.98 2.542-2.826v-.693h-.073c-.468.585-1.37 1.096-2.508 1.096-2.381 0-4.563-2.1-4.563-4.802 0-2.722 2.181-4.839 4.563-4.839 1.136 0 2.038.511 2.508 1.078h.073V5.73h1.986v-.002zm-1.838 4.548c0-1.698-1.118-2.939-2.542-2.939-1.443 0-2.652 1.241-2.652 2.939 0 1.68 1.209 2.904 2.652 2.904 1.424 0 2.542-1.224 2.542-2.904z"/>
      <path fill="#34a853" style="fill:var(--color7, #34a853)" d="M48.309.652v14.13h-2.04V.652h2.04z"/>
      <path fill="#ea4335" style="fill:var(--color4, #ea4335)" d="m56.257 11.843 1.623 1.096c-.524.785-1.786 2.137-3.968 2.137-2.705 0-4.726-2.117-4.726-4.822 0-2.867 2.038-4.822 4.492-4.822 2.471 0 3.68 1.991 4.075 3.067l.217.548-6.366 2.67c.487.967 1.245 1.461 2.308 1.461 1.065 0 1.804-.53 2.344-1.335zm-4.996-1.734 4.256-1.789c-.234-.602-.938-1.022-1.767-1.022-1.063 0-2.542.95-2.488 2.811z"/>
      <path fill="#4285f4" style="fill:var(--color6, #4285f4)" d="M7.577 9.002V6.956h6.808c.067.357.101.778.101 1.235 0 1.535-.414 3.433-1.75 4.785-1.299 1.37-2.959 2.1-5.157 2.1-4.075 0-7.502-3.361-7.502-7.487S3.504.102 7.579.102c2.254 0 3.86.896 5.067 2.063L11.22 3.608c-.865-.822-2.038-1.461-3.644-1.461-2.976 0-5.303 2.428-5.303 5.441s2.327 5.441 5.303 5.441c1.93 0 3.029-.785 3.734-1.498.571-.578.947-1.404 1.095-2.533L7.576 9z"/>
    </symbol>
    <symbol id="icon-microsoft" viewBox="0 0 96 20">
      <path fill="#737373" style="fill:var(--color8, #737373)" d="m34.052 11.519-.575 1.581h-.048a11.065 11.065 0 0 0-.559-1.55l-3.083-7.519h-3.019v11.985h1.997V8.621c0-.465 0-.992-.016-1.643-.016-.326-.048-.574-.064-.76h.048c.096.465.208.806.287 1.023l3.705 8.744h1.406l3.674-8.822c.08-.202.16-.605.24-.946h.048c-.048.884-.08 1.674-.096 2.155v7.597h2.124V4h-2.907l-3.162 7.519zm8.082-4.139h2.076v8.589h-2.076V7.38zm1.054-3.628c-.351 0-.639.124-.878.341s-.367.496-.367.837c0 .326.128.605.367.822s.527.326.878.326.655-.124.878-.326c.24-.217.367-.496.367-.822s-.128-.605-.367-.837c-.208-.217-.511-.341-.878-.341zm8.385 3.55a6 6 0 0 0-1.166-.124c-.942 0-1.805.202-2.524.605s-1.294.961-1.661 1.659c-.383.713-.575 1.535-.575 2.481 0 .822.192 1.55.559 2.217a3.772 3.772 0 0 0 1.565 1.535c.655.357 1.422.543 2.284.543.99 0 1.837-.202 2.508-.574l.016-.016v-1.86l-.08.062a3.62 3.62 0 0 1-1.006.512 3.16 3.16 0 0 1-.99.186c-.831 0-1.485-.233-1.949-.744-.479-.496-.719-1.178-.719-2.031 0-.884.24-1.581.735-2.093s1.15-.775 1.949-.775c.671 0 1.358.217 1.981.651l.08.062V7.629l-.016-.015c-.272-.109-.575-.233-.99-.31zm6.852-.062c-.511 0-.99.155-1.406.481-.351.279-.591.682-.799 1.163h-.016V7.38h-2.076v8.589h2.076v-4.388c0-.744.16-1.364.511-1.814.351-.465.799-.698 1.342-.698.192 0 .383.047.623.078.223.062.383.124.495.202l.08.062V7.396l-.048-.016c-.144-.093-.431-.14-.783-.14zm5.654-.046c-1.454 0-2.619.419-3.434 1.24-.831.822-1.23 1.953-1.23 3.38 0 1.333.415 2.419 1.214 3.209.798.775 1.885 1.178 3.242 1.178 1.421 0 2.555-.419 3.37-1.256.831-.837 1.23-1.953 1.23-3.333 0-1.364-.384-2.45-1.166-3.24-.751-.791-1.852-1.178-3.226-1.178zm1.661 6.604c-.383.481-.99.713-1.741.713s-1.358-.233-1.789-.744c-.431-.481-.639-1.178-.639-2.062 0-.915.224-1.612.639-2.109.431-.496 1.022-.744 1.773-.744.735 0 1.309.233 1.725.713s.639 1.178.639 2.093c-.032.93-.208 1.659-.607 2.14zm7.364-2.852c-.655-.264-1.071-.465-1.262-.636-.16-.155-.24-.372-.24-.651 0-.233.096-.465.336-.62s.511-.233.91-.233c.352 0 .719.062 1.07.155s.671.233.926.419l.08.062V7.551l-.048-.016a5.962 5.962 0 0 0-.942-.264 6.602 6.602 0 0 0-1.022-.093c-.991 0-1.805.233-2.444.744-.639.481-.942 1.132-.942 1.891 0 .403.064.76.208 1.054s.351.574.639.806a5.6 5.6 0 0 0 1.278.698c.479.202.846.357 1.07.481s.368.264.479.372a.87.87 0 0 1 .128.481c0 .574-.447.853-1.358.853-.351 0-.719-.062-1.15-.202s-.831-.341-1.166-.574l-.08-.062v1.969l.048.015c.304.14.671.233 1.118.341.447.077.846.14 1.198.14 1.07 0 1.948-.233 2.571-.744.639-.496.974-1.132.974-1.954 0-.574-.159-1.085-.511-1.473a6.526 6.526 0 0 0-1.869-1.07zm7.858-3.752c-1.454 0-2.619.419-3.434 1.24s-1.23 1.953-1.23 3.38c0 1.333.415 2.419 1.214 3.209.798.775 1.885 1.178 3.242 1.178 1.421 0 2.555-.419 3.37-1.256.831-.837 1.23-1.953 1.23-3.333 0-1.364-.384-2.45-1.166-3.24-.751-.791-1.852-1.178-3.226-1.178zm1.644 6.604c-.383.481-.99.713-1.741.713-.767 0-1.358-.233-1.789-.744-.431-.481-.639-1.178-.639-2.062 0-.915.224-1.612.639-2.109.431-.496 1.022-.744 1.773-.744.718 0 1.309.233 1.725.713s.639 1.178.639 2.093c0 .93-.208 1.659-.607 2.14zm13.848-4.759V7.38h-2.092V4.837l-.064.016-2.029.589V7.38h-3.13V6.295c0-.496.128-.884.351-1.132s.559-.372.974-.372c.288 0 .591.062.926.202l.08.047V3.288l-.048-.016c-.287-.093-.671-.155-1.166-.155a3.84 3.84 0 0 0-1.661.372c-.495.264-.862.62-1.134 1.101a3.094 3.094 0 0 0-.415 1.597v1.194h-1.454v1.643h1.454v6.946h2.092V9.04h3.13v4.419c0 1.814.879 2.729 2.636 2.729.287 0 .591-.047.878-.093.304-.062.527-.14.655-.202l.016-.016v-1.659l-.079.062c-.128.078-.24.14-.431.186-.16.047-.304.062-.415.062-.415 0-.703-.093-.911-.326-.192-.217-.288-.574-.288-1.101V9.039h2.124z"/>
      <path fill="#f25022" style="fill:var(--color9, #f25022)" d="M0 0h9.791v9.504H0V0z"/>
      <path fill="#7fba00" style="fill:var(--color10, #7fba00)" d="M10.813 0h9.791v9.504h-9.791V0z"/>
      <path fill="#00a4ef" style="fill:var(--color11, #00a4ef)" d="M0 10.496h9.791V20H0v-9.504z"/>
      <path fill="#ffb900" style="fill:var(--color12, #ffb900)" d="M10.813 10.496h9.791V20h-9.791v-9.504z"/>
    </symbol>
    <symbol id="icon-enterpreneur" viewBox="0 0 20 20">
      <path fill="#d6b1ff" style="fill:var(--color1, #d6b1ff)" d="M15 8.333h5L17.5 5 15 8.333zm0 3.334h5L17.5 15 15 11.667z"/>
      <path fill="#02897a" style="fill:var(--color2, #02897a)" d="M.833 0h5v20h-5A.833.833 0 0 1 0 19.167V.834A.833.833 0 0 1 .833.001zM7.5 0h5a.833.833 0 0 1 .833.833v18.333a.833.833 0 0 1-.833.833h-5v-20z"/>
    </symbol>
    <symbol id="icon-accountants" viewBox="0 0 20 20">
      <path fill="#d6b1ff" style="fill:var(--color1, #d6b1ff)" d="M17.5 20H10a.833.833 0 0 1-.833-.833V17.5a.833.833 0 0 1 .833-.833h7.5a.833.833 0 0 1 .833.833v1.667A.833.833 0 0 1 17.5 20z"/>
      <path fill="#11b5e4" style="fill:var(--color3, #11b5e4)" d="M17.5 0h-15a.833.833 0 0 0-.833.833V2.5a.833.833 0 0 0 .833.833h15a.833.833 0 0 0 .833-.833V.833A.833.833 0 0 0 17.5 0zM17.5 5h-15a.833.833 0 0 0-.833.833v8.333a.833.833 0 0 0 .833.833h15a.833.833 0 0 0 .833-.833V5.833A.833.833 0 0 0 17.5 5z"/>
    </symbol>
    <symbol id="icon-universities" viewBox="0 0 21 20">
      <path fill="#d6b1ff" style="fill:var(--color1, #d6b1ff)" d="M4.314.833h-2.5a.833.833 0 0 0-.833.833v16.667a.833.833 0 0 0 .833.833h2.5V.833z"/>
      <path fill="#f03e3d" style="fill:var(--color4, #f03e3d)" d="M5.981 19.167h8.333V.834H5.981v18.333zm4.166-3.334a.833.833 0 1 1 0-1.667.833.833 0 0 1 0 1.667zm0-11.666a.833.833 0 1 1 0 1.667.833.833 0 0 1 0-1.667zm0 5a.833.833 0 1 1 0 1.667.833.833 0 0 1 0-1.667zM18.481.833h-2.5v18.333h2.5a.833.833 0 0 0 .833-.833V1.666a.833.833 0 0 0-.833-.833z"/>
    </symbol>
    <symbol id="icon-circle_right" viewBox="0 0 19 20">
      <path d="M10.638 10.928H4.762V9.023h5.876L8.181 6.556l1.343-1.343 4.762 4.762-4.762 4.762-1.343-1.343 2.457-2.467z"/>
      <path d="M0 9.975c0 5.26 4.264 9.524 9.524 9.524s9.524-4.264 9.524-9.524c0-5.26-4.264-9.524-9.524-9.524S0 4.715 0 9.975zm1.905 0a7.619 7.619 0 1 1 15.238 0 7.619 7.619 0 0 1-15.238 0z"/>
    </symbol>
    <symbol id="icon-twitter-square" viewBox="0 0 39 32">
      <path d="M37.677 4.611a15.093 15.093 0 0 1-4.337 1.166 7.513 7.513 0 0 0 3.313-4.152 14.87 14.87 0 0 1-4.779 1.82 7.511 7.511 0 0 0-5.503-2.38 7.529 7.529 0 0 0-7.53 7.535c0 .583.071 1.166.186 1.727A21.404 21.404 0 0 1 3.498 2.443a7.483 7.483 0 0 0-1.025 3.803 7.534 7.534 0 0 0 3.357 6.276 7.607 7.607 0 0 1-3.405-.958v.093a7.534 7.534 0 0 0 6.038 7.394 7.996 7.996 0 0 1-1.983.256c-.49 0-.954-.049-1.422-.115a7.545 7.545 0 0 0 7.04 5.225 15.096 15.096 0 0 1-9.35 3.22c-.632 0-1.215-.022-1.82-.093a21.328 21.328 0 0 0 11.567 3.379c13.851 0 21.43-11.475 21.43-21.434 0-.327 0-.654-.022-.98a16.208 16.208 0 0 0 3.776-3.896z"/>
    </symbol>
    <symbol id="icon-facebook-square" viewBox="0 0 32 32">
      <path d="M30.264.468H1.698A1.24 1.24 0 0 0 .456 1.71v28.566a1.24 1.24 0 0 0 1.242 1.242h28.566a1.24 1.24 0 0 0 1.242-1.242V1.71A1.24 1.24 0 0 0 30.264.468zm-3.586 9.063h-2.48c-1.945 0-2.321.924-2.321 2.282v2.992h4.642l-.605 4.685h-4.037v12.028h-4.84V19.494h-4.048v-4.689h4.048v-3.454c0-4.009 2.449-6.195 6.028-6.195 1.715 0 3.187.128 3.617.186V9.53h-.004z"/>
    </symbol>
    <symbol id="icon-linkedin-square" viewBox="0 0 32 32">
      <path d="M30.253.468H1.687A1.24 1.24 0 0 0 .445 1.71v28.566a1.24 1.24 0 0 0 1.242 1.242h28.566a1.24 1.24 0 0 0 1.242-1.242V1.71A1.24 1.24 0 0 0 30.253.468zM9.655 26.927H5.048V12.108h4.607v14.819zM7.354 10.082a2.678 2.678 0 0 1-2.468-1.648 2.664 2.664 0 0 1 .579-2.91 2.675 2.675 0 0 1 2.91-.579 2.673 2.673 0 0 1 1.648 2.468 2.675 2.675 0 0 1-2.67 2.67zm19.55 16.845h-4.603v-7.208c0-1.719-.031-3.928-2.395-3.928-2.395 0-2.763 1.871-2.763 3.804v7.332h-4.599V12.108h4.417v2.026h.062c.613-1.164 2.115-2.395 4.359-2.395 4.665 0 5.523 3.07 5.523 7.06v8.127z"/>
    </symbol>
    <symbol id="icon-phone" viewBox="0 0 21 32">
      <path d="M18.424 0H2.909C1.303 0 0 1.344 0 3v26c0 1.656 1.303 3 2.909 3h15.515c1.606 0 2.909-1.344 2.909-3V3c0-1.656-1.303-3-2.909-3zm-4.848 27.944c0 .606-.436 1.056-.97 1.056H8.673c-.479 0-.915-.45-.915-1s.436-1 .97-1h3.879c.533 0 .97.45.97.944zM17.455 24H3.879V4h13.576v20z"/>
    </symbol>
  </defs>
</svg>
