<svg aria-hidden="true" style="position: absolute; width: 0; height: 0; overflow: hidden;" version="1.1" xmlns="http://www.w3.org/2000/svg" xmlns:xlink="http://www.w3.org/1999/xlink">
    <defs>
        <symbol id="icon-logo" viewBox="0 0 35 32">
            <path fill="#02bc6b" style="fill: var(--color1, #02bc6b)" d="M2.71 29.802c-1.49 0-2.71-1.219-2.71-2.71v-9.473h6.821v-0.011h4.099c1.057-0.027 1.951-0.948 1.951-2.032 0-1.111-0.921-2.032-2.032-2.032l-10.839 0.002v-2.711c0-1.49 1.219-2.71 2.71-2.71h8.129c2.059 0 3.821 0.732 5.257 2.195 1.463 1.436 2.195 3.197 2.195 5.257 0 2.032-0.705 3.794-2.141 5.23s-3.17 2.195-5.203 2.222h-5.528v4.065c0 1.49-1.219 2.71-2.71 2.71z"></path>
            <path fill="#02897a" style="fill: var(--color2, #02897a)" d="M21.706 4.98c2.994 2.908 4.502 6.529 4.502 10.646 0 4.048-1.445 7.666-4.393 10.583l-4.185-3.937c1.833-1.814 2.733-3.998 2.733-6.645 0-2.667-0.927-4.848-2.804-6.671l4.146-3.975z"></path>
            <path fill="#035b81" style="fill: var(--color3, #035b81)" d="M28.113 0c4.312 4.305 6.482 9.643 6.482 15.77 0 6.031-2.082 11.366-6.323 15.68l-4.039-3.946c3.159-3.214 4.707-7.112 4.707-11.734 0-4.669-1.6-8.563-4.828-11.786l4.002-3.984z"></path>
            <path fill="#028e37" style="fill: var(--color4, #028e37)" d="M0 23.051h5.419v4.042c0 1.49-1.219 2.71-2.71 2.71s-2.71-1.219-2.71-2.71v-4.042z"></path>
        </symbol>

        <symbol id="icon-burger" viewBox="0 0 29 32">
            <path stroke-linejoin="round" stroke-linecap="round" stroke-miterlimit="4" stroke-width="3.0968" d="M3.613 16h21.677"></path>
            <path stroke-linejoin="round" stroke-linecap="round" stroke-miterlimit="4" stroke-width="3.0968" d="M3.613 8h21.677"></path>
            <path stroke-linejoin="round" stroke-linecap="round" stroke-miterlimit="4" stroke-width="3.0968" d="M3.613 24h21.677"></path>
        </symbol>

        <symbol id="icon-close" viewBox="0 0 20 20">
            <path d="M10 8.586l-7.071-7.071-1.414 1.414 7.071 7.071-7.071 7.071 1.414 1.414 7.071-7.071 7.071 7.071 1.414-1.414-7.071-7.071 7.071-7.071-1.414-1.414-7.071 7.071z"></path>
        </symbol>

        <symbol id="icon-play" viewBox="0 0 17 20">
            <path d="M16.235 9.175c0.753 0.432 0.753 1.519 0 1.951l-14.037 8.057c-0.75 0.43-1.685-0.111-1.685-0.976v-16.114c0-0.865 0.935-1.406 1.685-0.976l14.037 8.057z"></path>
        </symbol>

        <symbol id="icon-arrow" viewBox="0 0 13 20">
            <path d="M11.901 11.254l-10.756-10.756c-0.126-0.137-0.294-0.2-0.473-0.2-0.084 0-0.179 0.021-0.252 0.053-0.252 0.105-0.42 0.347-0.42 0.62v15.798c0 0.273 0.168 0.515 0.42 0.62 0.074 0.032 0.168 0.052 0.252 0.052 0.179 0 0.347-0.074 0.473-0.2l3.277-3.277 2.006 4.748c0.147 0.336 0.536 0.504 0.882 0.357l1.859-0.788c0.336-0.147 0.504-0.536 0.357-0.882l-2.111-5h4.013c0.273 0 0.515-0.168 0.62-0.42 0.105-0.242 0.052-0.536-0.147-0.725z"></path>
        </symbol>

        <symbol id="icon-line" viewBox="0 0 26 20">
            <path d="M13.546 8.015l1.671 0.778 2.487-0.74v-1.735c0-2.946-2.487-5.306-5.459-5.306-2.959 0-5.459 2.347-5.459 5.268v7.908c0 0.727-0.587 1.301-1.301 1.301s-1.301-0.574-1.301-1.301v-3.342h-4.184c0 3.355 0 3.393 0 3.393 0 3.023 2.449 5.472 5.472 5.472 2.997 0 5.472-2.411 5.472-5.395v-7.806c0-0.714 0.587-1.301 1.301-1.301s1.301 0.587 1.301 1.301v1.505zM20.306 10.847v3.508c0 0.714-0.587 1.288-1.301 1.288s-1.301-0.574-1.301-1.288v-3.444l-2.487 0.74-1.671-0.778v3.418c0 2.997 2.462 5.421 5.472 5.421 3.023 0 5.472-2.449 5.472-5.472 0 0 0-0.038 0-3.393h-4.184z"></path>
        </symbol>

        <symbol id="icon-heart" viewBox="0 0 21 20">
            <path d="M10.667 18.814c0.19 0 0.381-0.071 0.524-0.214l7.417-7.143c0.107-0.107 2.726-2.5 2.726-5.357 0-3.488-2.131-5.571-5.691-5.571-2.083 0-4.036 1.643-4.976 2.571-0.94-0.929-2.893-2.571-4.976-2.571-3.56 0-5.69 2.083-5.69 5.571 0 2.857 2.619 5.25 2.714 5.333l7.429 7.167c0.143 0.143 0.333 0.214 0.524 0.214z"></path>
        </symbol>

        <symbol id="icon-clock" viewBox="0 0 16 20">
            <path d="M14.79 1.643h1.008c0.189 0 0.336-0.147 0.336-0.336v-0.672c0-0.189-0.147-0.336-0.336-0.336h-15.462c-0.189 0-0.336 0.147-0.336 0.336v0.672c0 0.189 0.147 0.336 0.336 0.336h1.008c0 3.887 1.859 6.702 3.918 8.067-2.059 1.366-3.918 4.181-3.918 8.067h-1.008c-0.189 0-0.336 0.147-0.336 0.336v0.672c0 0.189 0.147 0.336 0.336 0.336h15.462c0.189 0 0.336-0.147 0.336-0.336v-0.672c0-0.189-0.147-0.336-0.336-0.336h-1.008c0-3.886-1.859-6.702-3.918-8.067 2.059-1.366 3.918-4.181 3.918-8.067zM13.445 1.643c0 1.534-0.347 2.889-0.893 4.034h-8.971c-0.546-1.145-0.893-2.5-0.893-4.034h10.756zM12.847 14.416h-9.559c0.777-2.027 2.174-3.466 3.571-4.034h2.416c1.397 0.567 2.794 2.006 3.571 4.034z"></path>
        </symbol>

        <symbol id="icon-check-mark" viewBox="0 0 25 20">
            <path d="M24.255 0.914c-0.481-0.491-1.26-0.491-1.741 0l-14.745 15.059-5.668-5.788c-0.481-0.491-1.26-0.491-1.741 0s-0.481 1.287 0 1.778l6.538 6.677c0.48 0.491 1.26 0.491 1.741 0l15.616-15.948c0.481-0.491 0.481-1.287 0-1.778z"></path>
        </symbol>
    </defs>
</svg>
